<?xml version="1.0" encoding="utf-8" standalone="yes"?><svg xmlns="http://www.w3.org/2000/svg" xmlns:xlink="http://www.w3.org/1999/xlink" version="1.1" width="816" height="1056"><!--Generated by Aspose.Words for .NET 23.3.0--><defs><clipPath id="clip001"><path d="M0,0 L624,0 L624,534.8571 L0,534.8571 Z" clip-rule="evenodd" /></clipPath></defs><g><rect x="0" y="0" width="816" height="1056" style="fill: #ffffff; stroke: #000000; stroke-width: 1.333333" /><g transform="translate(96,96)"><g><g /></g></g><g transform="translate(96,96)"><g><g clip-path="url(#clip001)"><g transform="matrix(0.8915432,0,0,0.8915327,0,0)"><g><path d="M250,300 C250,308.7773 227.4292,316 200,316 L200,316 C172.5708,316 150,308.7773 150,300 L150,300 C150,291.2227 172.5708,284 200,284 L200,284 C227.4292,284 250,291.2227 250,300 " fill="#d3d3d3" fill-rule="nonzero" /><path d="M300,200 C300,254.8584 254.8584,300 200,300 L200,300 C145.1416,300 100,254.8584 100,200 L100,200 C100,145.1416 145.1416,100 200,100 L200,100 C254.8584,100 300,145.1416 300,200 " fill="#ffa500" fill-rule="nonzero" /><path d="M230,180 C230,201.9434 211.9434,220 190,220 L190,220 C168.0567,220 150,201.9434 150,180 L150,180 C150,158.0567 168.0567,140 190,140 L190,140 C211.9434,140 230,158.0567 230,180 " fill="#ffffff" fill-rule="nonzero" /><path d="M280,180 C280,201.9434 261.9434,220 240,220 L240,220 C218.0566,220 200,201.9434 200,180 L200,180 C200,158.0567 218.0566,140 240,140 L240,140 C261.9434,140 280,158.0567 280,180 " fill="#ffffff" fill-rule="nonzero" /><path d="M205,180 C205,183.8401 201.8401,187 198,187 L198,187 C194.1599,187 191,183.8401 191,180 L191,180 C191,176.1599 194.1599,173 198,173 L198,173 C201.8401,173 205,176.1599 205,180 " fill="#000000" fill-rule="nonzero" /><path d="M255,180 C255,183.8401 251.8401,187 248,187 L248,187 C244.1599,187 241,183.8401 241,180 L241,180 C241,176.1599 244.1599,173 248,173 L248,173 C251.8401,173 255,176.1599 255,180 " fill="#000000" fill-rule="nonzero" /><path d="M228,218 C228,223.4858 223.4858,228 218,228 L218,228 C212.5142,228 208,223.4858 208,218 L208,218 C208,212.5142 212.5142,208 218,208 L218,208 C223.4858,208 228,212.5142 228,218 " fill="#000000" fill-rule="nonzero" /><path d="M214,250 C214,253.2915 207.6802,256 200,256 L200,256 C192.3198,256 186,253.2915 186,250 L186,250 C186,246.7085 192.3198,244 200,244 L200,244 C207.6802,244 214,246.7085 214,250 " fill="#dc143c" fill-rule="nonzero" /><path d="M160,210 C160,220.9717 137.4292,230 110,230 L110,230 C82.57082,230 60,220.9717 60,210 L60,210 C60,199.0283 82.57082,190 110,190 L110,190 C137.4292,190 160,199.0283 160,210 " transform="rotate(10)" fill="#ffa500" fill-rule="nonzero" /><path d="M130,130 L160,110 L136,95 " fill="#ffa500" fill-rule="nonzero" /><path d="M134,126 L156,112 L138,100 " fill="#000000" fill-rule="nonzero" /><path d="M225,104 L250,114 L240,90 " fill="#ffa500" fill-rule="nonzero" /><path d="M228,104 L247,111 L239,93 " fill="#000000" fill-rule="nonzero" /><path d="M22,216 L40,236 L46,206 " fill="#ffffff" fill-rule="nonzero" /><path d="M550,300 C550,308.7773 527.4292,316 500,316 L500,316 C472.5708,316 450,308.7773 450,300 L450,300 C450,291.2227 472.5708,284 500,284 L500,284 C527.4292,284 550,291.2227 550,300 " fill="#d3d3d3" fill-rule="nonzero" /><path d="M600,200 C600,254.8584 554.8584,300 500,300 L500,300 C445.1416,300 400,254.8584 400,200 L400,200 C400,145.1416 445.1416,100 500,100 L500,100 C554.8584,100 600,145.1416 600,200 " fill="#ffff00" fill-rule="nonzero" /><path d="M550,180 C550,201.9434 531.9434,220 510,220 L510,220 C488.0566,220 470,201.9434 470,180 L470,180 C470,158.0567 488.0566,140 510,140 L510,140 C531.9434,140 550,158.0567 550,180 " fill="#ffffff" fill-rule="nonzero" /><path d="M500,180 C500,201.9434 481.9434,220 460,220 L460,220 C438.0566,220 420,201.9434 420,180 L420,180 C420,158.0567 438.0566,140 460,140 L460,140 C481.9434,140 500,158.0567 500,180 " fill="#ffffff" fill-rule="nonzero" /><path d="M507,180 C507,183.8401 503.8401,187 500,187 L500,187 C496.1599,187 493,183.8401 493,180 L493,180 C493,176.1599 496.1599,173 500,173 L500,173 C503.8401,173 507,176.1599 507,180 " fill="#000000" fill-rule="nonzero" /><path d="M457,180 C457,183.8401 453.8401,187 450,187 L450,187 C446.1599,187 443,183.8401 443,180 L443,180 C443,176.1599 446.1599,173 450,173 L450,173 C453.8401,173 457,176.1599 457,180 " fill="#000000" fill-rule="nonzero" /><path d="M494,250 C494,257.6802 490.3887,264 486,264 L486,264 C481.6113,264 478,257.6802 478,250 L478,250 C478,242.3198 481.6113,236 486,236 L486,236 C490.3887,236 494,242.3198 494,250 " fill="#dc143c" fill-rule="nonzero" /></g></g></g></g></g></g></svg>